<svg width="83" height="231" viewBox="0 0 83 231" fill="none" xmlns="http://www.w3.org/2000/svg">
<path fill-rule="evenodd" clip-rule="evenodd" d="M-6.10352e-05 230.368V171.689H13.0092V192.733L82.2558 171.421V184.453L28.5402 201.092L82.2558 217.588V230.596L13.0092 209.387V230.368H-6.10352e-05Z" fill="#6B61A9"/>
<path fill-rule="evenodd" clip-rule="evenodd" d="M54.5005 25.7901V50.6207H67.5098V0L54.5005 0.0761261L41.1403 22.9124L28.0432 0H14.7709V50.6207H27.7801V25.563L37.4507 42.3125L44.8755 42.2631L54.5005 25.7901Z" fill="#6B61A9"/>
<path fill-rule="evenodd" clip-rule="evenodd" d="M78.518 111.71V166.359H65.5088V144.537L3.78949 166.398V153.351L31.5083 143.525H3.78949V111.71H78.518ZM65.5088 124.719H16.7987V130.516H65.5088V124.719Z" fill="#6B61A9"/>
<path fill-rule="evenodd" clip-rule="evenodd" d="M60.9795 106.476V90.7861H21.2499V106.476H8.24066V55.855H73.9888V106.476H60.9795ZM21.2499 68.8642V77.7769H60.9795V68.8642H21.2499Z" fill="#6B61A9"/>
</svg>
