<svg width="21" height="21" viewBox="0 0 21 21" fill="none" xmlns="http://www.w3.org/2000/svg">
<path d="M1.00049 5C1.00049 3.59987 1.00049 2.8998 1.27297 2.36502C1.51266 1.89462 1.89511 1.51217 2.36551 1.27248C2.90029 1 3.60036 1 5.00049 1H16.0001C17.4002 1 18.1002 1 18.635 1.27248C19.1054 1.51217 19.4879 1.89462 19.7276 2.36502C20 2.8998 20 3.59987 20 5V15.9996C20 17.3997 20 18.0998 19.7276 18.6345C19.4879 19.1049 19.1054 19.4874 18.635 19.7271C18.1002 19.9996 17.4002 19.9996 16 19.9996H5.00049C3.60036 19.9996 2.90029 19.9996 2.36551 19.7271C1.89511 19.4874 1.51266 19.1049 1.27297 18.6345C1.00049 18.0998 1.00049 17.3997 1.00049 15.9996V5Z" stroke="white"/>
<path d="M1 6.58789H4.11597C5.31879 6.58789 5.9202 6.58789 6.4035 6.88659C6.8868 7.18529 7.15576 7.7232 7.69368 8.79904L7.71778 8.84723C8.25569 9.92306 8.52465 10.461 9.00795 10.7597C9.49126 11.0584 10.0927 11.0584 11.2955 11.0584H16.6467C17.9114 11.0584 18.5437 11.0584 19.0128 10.7827C19.3065 10.6101 19.5513 10.3653 19.7239 10.0716C19.9996 9.6025 19.9996 8.97017 19.9996 7.70551V7.70551" stroke="white"/>
<path d="M4.91211 14.9705H13.8531" stroke="white" stroke-linecap="round"/>
</svg>
