<svg width="19" height="19" viewBox="0 0 19 19" fill="none" xmlns="http://www.w3.org/2000/svg">
<path d="M14.4849 12.2627L17.3194 15.0972C17.6953 15.4731 17.6953 16.0825 17.3194 16.4584C15.2872 18.4905 12.07 18.7192 9.77087 16.9948L7.9619 15.6381C6.21837 14.3304 4.66955 12.7816 3.3619 11.0381L2.00518 9.22912C0.280819 6.92998 0.509459 3.71276 2.54163 1.68059C2.91751 1.30471 3.52693 1.30471 3.90281 1.68059L6.73734 4.51512C7.12786 4.90564 7.12786 5.5388 6.73734 5.92933L5.62018 7.04649C5.44888 7.21779 5.40641 7.47949 5.51475 7.69616C6.76733 10.2013 8.79867 12.2327 11.3038 13.4853C11.5205 13.5936 11.7822 13.5511 11.9535 13.3798L13.0707 12.2627C13.4612 11.8721 14.0944 11.8721 14.4849 12.2627Z" stroke="white"/>
</svg>
